# xmcd
#
# Track frame offsets:
#	150
#	15703
#	27271
#	38325
#	49983
#	67010
#	87715
#	107701
#	131329
#	151425
#	167142
#	183651
#	197230
#	218264
#	233147
#	255698
#	270141
#	297183
#	306882
#	329225
#
# Disc length: 4632 seconds
# Revision: 0
# Processed by: cddbd v1.5.2PL0 Copyright (c) Steve Scherf et al.
# Submitted via: dBpowerAMP V12.0
#
DISCID=1f121614
DTITLE=Mari Wilson - The Platinum Collection
DYEAR=2007
DGENRE=Pop
TTITLE0=Just What I Always Wanted
TTITLE1=Perhaps Perhaps Perhaps
TTITLE2=Love Man
TTITLE3=Dance Card
TTITLE4=Beat The Beat
TTITLE5=Baby It's True
TTITLE6=Wonderful To Be With
TTITLE7=The End Of The Affair
TTITLE8=One Day Is A Lifetime
TTITLE9=Dr. Love
TTITLE10=Remember Me
TTITLE11=This Time Tomorrow
TTITLE12=Are You There With Another Girl?
TTITLE13=I May Be Wrong
TTITLE14=Beware Boyfriend
TTITLE15=Ecstacy
TTITLE16=This Is It
TTITLE17=Would You Dance With A Stranger
TTITLE18=The Love Thing
TTITLE19=Cry Me A River (Tu No Me Lores)
EXTD=
EXTT0=
EXTT1=
EXTT2=
EXTT3=
EXTT4=
EXTT5=
EXTT6=
EXTT7=
EXTT8=
EXTT9=
EXTT10=
EXTT11=
EXTT12=
EXTT13=
EXTT14=
EXTT15=
EXTT16=
EXTT17=
EXTT18=
EXTT19=
PLAYORDER=
